<svg width="40" height="40" viewBox="0 0 40 40" fill="none" xmlns="http://www.w3.org/2000/svg">
<circle cx="20" cy="20" r="20" fill="#00569D"/>
<g clip-path="url(#clip0)">
<path d="M24.9992 10.0042L22.4056 10C19.4919 10 17.6089 11.9319 17.6089 14.922V17.1913H15.0013C14.7759 17.1913 14.5934 17.374 14.5934 17.5994V20.8874C14.5934 21.1127 14.7761 21.2952 15.0013 21.2952H17.6089V29.592C17.6089 29.8173 17.7914 29.9998 18.0167 29.9998H21.419C21.6443 29.9998 21.8268 29.8171 21.8268 29.592V21.2952H24.8758C25.1011 21.2952 25.2836 21.1127 25.2836 20.8874L25.2848 17.5994C25.2848 17.4912 25.2418 17.3875 25.1654 17.311C25.0891 17.2344 24.985 17.1913 24.8768 17.1913H21.8268V15.2676C21.8268 14.3429 22.0472 13.8735 23.2516 13.8735L24.9988 13.8729C25.2239 13.8729 25.4064 13.6902 25.4064 13.4651V10.412C25.4064 10.1871 25.2241 10.0046 24.9992 10.0042Z" fill="white"/>
</g>
<defs>
<clipPath id="clip0">
<rect x="10" y="10" width="20" height="19.9998" fill="white"/>
</clipPath>
</defs>
</svg>
