<svg width="20" height="20" viewBox="0 0 20 20" fill="none" xmlns="http://www.w3.org/2000/svg">
<circle cx="10" cy="10" r="10" fill="#00569D"/>
<g clip-path="url(#clip0)">
<path d="M12.2029 5.00212L10.9061 5C9.44923 5 8.50774 5.98435 8.50774 7.50789V8.6642H7.2039C7.09124 8.6642 7 8.75728 7 8.8721V10.5475C7 10.6623 7.09134 10.7552 7.2039 10.7552H8.50774V14.9827C8.50774 15.0975 8.59898 15.1905 8.71164 15.1905H10.4128C10.5254 15.1905 10.6167 15.0974 10.6167 14.9827V10.7552H12.1412C12.2538 10.7552 12.3451 10.6623 12.3451 10.5475L12.3457 8.8721C12.3457 8.81697 12.3242 8.76417 12.286 8.72516C12.2478 8.68615 12.1958 8.6642 12.1417 8.6642H10.6167V7.68398C10.6167 7.21285 10.7269 6.97368 11.3291 6.97368L12.2027 6.97337C12.3152 6.97337 12.4065 6.88028 12.4065 6.76558V5.20991C12.4065 5.09531 12.3153 5.00233 12.2029 5.00212Z" fill="white"/>
</g>
<defs>
<clipPath id="clip0">
<rect x="5" y="4.99951" width="10" height="9.9999" fill="white"/>
</clipPath>
</defs>
</svg>
