<svg width="20" height="20" viewBox="0 0 20 20" fill="none" xmlns="http://www.w3.org/2000/svg">
<circle cx="10" cy="10" r="10" fill="#00569D"/>
<path d="M11.875 5H8.125C6.39938 5 5 6.39938 5 8.125V11.875C5 13.6006 6.39938 15 8.125 15H11.875C13.6006 15 15 13.6006 15 11.875V8.125C15 6.39938 13.6006 5 11.875 5ZM14.0625 11.875C14.0625 13.0812 13.0812 14.0625 11.875 14.0625H8.125C6.91875 14.0625 5.9375 13.0812 5.9375 11.875V8.125C5.9375 6.91875 6.91875 5.9375 8.125 5.9375H11.875C13.0812 5.9375 14.0625 6.91875 14.0625 8.125V11.875Z" fill="white"/>
<path d="M10 7.5C8.61937 7.5 7.5 8.61937 7.5 10C7.5 11.3806 8.61937 12.5 10 12.5C11.3806 12.5 12.5 11.3806 12.5 10C12.5 8.61937 11.3806 7.5 10 7.5ZM10 11.5625C9.13875 11.5625 8.4375 10.8613 8.4375 10C8.4375 9.13813 9.13875 8.4375 10 8.4375C10.8613 8.4375 11.5625 9.13813 11.5625 10C11.5625 10.8613 10.8613 11.5625 10 11.5625Z" fill="white"/>
<path d="M12.6875 7.64574C12.8715 7.64574 13.0206 7.49659 13.0206 7.31262C13.0206 7.12864 12.8715 6.97949 12.6875 6.97949C12.5035 6.97949 12.3544 7.12864 12.3544 7.31262C12.3544 7.49659 12.5035 7.64574 12.6875 7.64574Z" fill="white"/>
</svg>
