<svg width="20" height="20" viewBox="0 0 20 20" fill="none" xmlns="http://www.w3.org/2000/svg">
<circle cx="10" cy="10" r="10" fill="#00569D"/>
<g clip-path="url(#clip0)">
<path d="M15.0546 10.9991V14.8225H13.038V11.2552C13.038 10.3591 12.7463 9.74748 12.0163 9.74748C11.4591 9.74748 11.1274 10.1596 10.9816 10.5583C10.9284 10.7009 10.9147 10.8993 10.9147 11.0988V14.8225H8.8973C8.8973 14.8225 8.92447 8.78065 8.8973 8.15467H10.9145V9.09981C10.9104 9.10688 10.9051 9.1145 10.9012 9.12135H10.9145V9.09981C11.1825 8.64613 11.6611 7.99802 12.7324 7.99802C14.0596 7.998 15.0546 8.95103 15.0546 10.9991ZM6.78705 4.94043C6.09691 4.94043 5.64551 5.43797 5.64551 6.09225C5.64551 6.73228 6.08385 7.24492 6.76028 7.24492H6.77375C7.47725 7.24492 7.91477 6.73237 7.91477 6.09225C7.90151 5.43797 7.47725 4.94043 6.78705 4.94043ZM5.76532 14.8225H7.78192V8.15467H5.76532V14.8225Z" fill="white"/>
</g>
<defs>
<clipPath id="clip0">
<rect x="5" y="4.99951" width="10" height="9.9999" fill="white"/>
</clipPath>
</defs>
</svg>
