<svg width="20" height="20" viewBox="0 0 20 20" fill="none" xmlns="http://www.w3.org/2000/svg">
<circle cx="10" cy="10" r="10" fill="#00569D"/>
<path d="M16.3077 7.18385C15.85 7.38462 15.3623 7.51769 14.8538 7.58231C15.3769 7.27 15.7762 6.77923 15.9638 6.18769C15.4762 6.47846 14.9377 6.68385 14.3638 6.79846C13.9008 6.30538 13.2408 6 12.5208 6C11.1238 6 9.99923 7.13385 9.99923 8.52385C9.99923 8.72385 10.0162 8.91615 10.0577 9.09923C7.96 8.99692 6.10385 7.99154 4.85692 6.46C4.63923 6.83769 4.51154 7.27 4.51154 7.73538C4.51154 8.60923 4.96154 9.38385 5.63231 9.83231C5.22692 9.82462 4.82923 9.70692 4.49231 9.52154C4.49231 9.52923 4.49231 9.53923 4.49231 9.54923C4.49231 10.7754 5.36692 11.7938 6.51385 12.0285C6.30846 12.0846 6.08462 12.1115 5.85231 12.1115C5.69077 12.1115 5.52769 12.1023 5.37462 12.0685C5.70154 13.0677 6.62923 13.8023 7.73231 13.8262C6.87385 14.4977 5.78385 14.9023 4.60385 14.9023C4.39692 14.9023 4.19846 14.8931 4 14.8677C5.11769 15.5885 6.44231 16 7.87077 16C12.5138 16 15.0523 12.1538 15.0523 8.82C15.0523 8.70846 15.0485 8.60077 15.0431 8.49385C15.5438 8.13846 15.9646 7.69462 16.3077 7.18385Z" fill="white"/>
</svg>
